<?xml version="1.0" encoding="UTF-8"?>
<svg version="1.1" baseProfile="tiny" xmlns="http://www.w3.org/2000/svg" width="300" height="300">
<rect shape-rendering="optimizeSpeed"  x="0" y="0" width="300" height="300" fill="white" />
<rect shape-rendering="optimizeSpeed"  x="19" y="19" width="9" height="9" fill="black" />
<rect shape-rendering="optimizeSpeed"  x="28" y="19" width="9" height="9" fill="black" />
<rect shape-rendering="optimizeSpeed"  x="37" y="19" width="9" height="9" fill="black" />
<rect shape-rendering="optimizeSpeed"  x="46" y="19" width="9" height="9" fill="black" />
<rect shape-rendering="optimizeSpeed"  x="55" y="19" width="9" height="9" fill="black" />
<rect shape-rendering="optimizeSpeed"  x="64" y="19" width="9" height="9" fill="black" />
<rect shape-rendering="optimizeSpeed"  x="73" y="19" width="9" height="9" fill="black" />
<rect shape-rendering="optimizeSpeed"  x="118" y="19" width="9" height="9" fill="black" />
<rect shape-rendering="optimizeSpeed"  x="127" y="19" width="9" height="9" fill="black" />
<rect shape-rendering="optimizeSpeed"  x="136" y="19" width="9" height="9" fill="black" />
<rect shape-rendering="optimizeSpeed"  x="172" y="19" width="9" height="9" fill="black" />
<rect shape-rendering="optimizeSpeed"  x="199" y="19" width="9" height="9" fill="black" />
<rect shape-rendering="optimizeSpeed"  x="217" y="19" width="9" height="9" fill="black" />
<rect shape-rendering="optimizeSpeed"  x="226" y="19" width="9" height="9" fill="black" />
<rect shape-rendering="optimizeSpeed"  x="235" y="19" width="9" height="9" fill="black" />
<rect shape-rendering="optimizeSpeed"  x="244" y="19" width="9" height="9" fill="black" />
<rect shape-rendering="optimizeSpeed"  x="253" y="19" width="9" height="9" fill="black" />
<rect shape-rendering="optimizeSpeed"  x="262" y="19" width="9" height="9" fill="black" />
<rect shape-rendering="optimizeSpeed"  x="271" y="19" width="9" height="9" fill="black" />
<rect shape-rendering="optimizeSpeed"  x="19" y="28" width="9" height="9" fill="black" />
<rect shape-rendering="optimizeSpeed"  x="73" y="28" width="9" height="9" fill="black" />
<rect shape-rendering="optimizeSpeed"  x="100" y="28" width="9" height="9" fill="black" />
<rect shape-rendering="optimizeSpeed"  x="109" y="28" width="9" height="9" fill="black" />
<rect shape-rendering="optimizeSpeed"  x="136" y="28" width="9" height="9" fill="black" />
<rect shape-rendering="optimizeSpeed"  x="145" y="28" width="9" height="9" fill="black" />
<rect shape-rendering="optimizeSpeed"  x="199" y="28" width="9" height="9" fill="black" />
<rect shape-rendering="optimizeSpeed"  x="217" y="28" width="9" height="9" fill="black" />
<rect shape-rendering="optimizeSpeed"  x="271" y="28" width="9" height="9" fill="black" />
<rect shape-rendering="optimizeSpeed"  x="19" y="37" width="9" height="9" fill="black" />
<rect shape-rendering="optimizeSpeed"  x="37" y="37" width="9" height="9" fill="black" />
<rect shape-rendering="optimizeSpeed"  x="46" y="37" width="9" height="9" fill="black" />
<rect shape-rendering="optimizeSpeed"  x="55" y="37" width="9" height="9" fill="black" />
<rect shape-rendering="optimizeSpeed"  x="73" y="37" width="9" height="9" fill="black" />
<rect shape-rendering="optimizeSpeed"  x="127" y="37" width="9" height="9" fill="black" />
<rect shape-rendering="optimizeSpeed"  x="145" y="37" width="9" height="9" fill="black" />
<rect shape-rendering="optimizeSpeed"  x="154" y="37" width="9" height="9" fill="black" />
<rect shape-rendering="optimizeSpeed"  x="190" y="37" width="9" height="9" fill="black" />
<rect shape-rendering="optimizeSpeed"  x="199" y="37" width="9" height="9" fill="black" />
<rect shape-rendering="optimizeSpeed"  x="217" y="37" width="9" height="9" fill="black" />
<rect shape-rendering="optimizeSpeed"  x="235" y="37" width="9" height="9" fill="black" />
<rect shape-rendering="optimizeSpeed"  x="244" y="37" width="9" height="9" fill="black" />
<rect shape-rendering="optimizeSpeed"  x="253" y="37" width="9" height="9" fill="black" />
<rect shape-rendering="optimizeSpeed"  x="271" y="37" width="9" height="9" fill="black" />
<rect shape-rendering="optimizeSpeed"  x="19" y="46" width="9" height="9" fill="black" />
<rect shape-rendering="optimizeSpeed"  x="37" y="46" width="9" height="9" fill="black" />
<rect shape-rendering="optimizeSpeed"  x="46" y="46" width="9" height="9" fill="black" />
<rect shape-rendering="optimizeSpeed"  x="55" y="46" width="9" height="9" fill="black" />
<rect shape-rendering="optimizeSpeed"  x="73" y="46" width="9" height="9" fill="black" />
<rect shape-rendering="optimizeSpeed"  x="91" y="46" width="9" height="9" fill="black" />
<rect shape-rendering="optimizeSpeed"  x="127" y="46" width="9" height="9" fill="black" />
<rect shape-rendering="optimizeSpeed"  x="136" y="46" width="9" height="9" fill="black" />
<rect shape-rendering="optimizeSpeed"  x="154" y="46" width="9" height="9" fill="black" />
<rect shape-rendering="optimizeSpeed"  x="172" y="46" width="9" height="9" fill="black" />
<rect shape-rendering="optimizeSpeed"  x="181" y="46" width="9" height="9" fill="black" />
<rect shape-rendering="optimizeSpeed"  x="199" y="46" width="9" height="9" fill="black" />
<rect shape-rendering="optimizeSpeed"  x="217" y="46" width="9" height="9" fill="black" />
<rect shape-rendering="optimizeSpeed"  x="235" y="46" width="9" height="9" fill="black" />
<rect shape-rendering="optimizeSpeed"  x="244" y="46" width="9" height="9" fill="black" />
<rect shape-rendering="optimizeSpeed"  x="253" y="46" width="9" height="9" fill="black" />
<rect shape-rendering="optimizeSpeed"  x="271" y="46" width="9" height="9" fill="black" />
<rect shape-rendering="optimizeSpeed"  x="19" y="55" width="9" height="9" fill="black" />
<rect shape-rendering="optimizeSpeed"  x="37" y="55" width="9" height="9" fill="black" />
<rect shape-rendering="optimizeSpeed"  x="46" y="55" width="9" height="9" fill="black" />
<rect shape-rendering="optimizeSpeed"  x="55" y="55" width="9" height="9" fill="black" />
<rect shape-rendering="optimizeSpeed"  x="73" y="55" width="9" height="9" fill="black" />
<rect shape-rendering="optimizeSpeed"  x="91" y="55" width="9" height="9" fill="black" />
<rect shape-rendering="optimizeSpeed"  x="100" y="55" width="9" height="9" fill="black" />
<rect shape-rendering="optimizeSpeed"  x="136" y="55" width="9" height="9" fill="black" />
<rect shape-rendering="optimizeSpeed"  x="145" y="55" width="9" height="9" fill="black" />
<rect shape-rendering="optimizeSpeed"  x="190" y="55" width="9" height="9" fill="black" />
<rect shape-rendering="optimizeSpeed"  x="199" y="55" width="9" height="9" fill="black" />
<rect shape-rendering="optimizeSpeed"  x="217" y="55" width="9" height="9" fill="black" />
<rect shape-rendering="optimizeSpeed"  x="235" y="55" width="9" height="9" fill="black" />
<rect shape-rendering="optimizeSpeed"  x="244" y="55" width="9" height="9" fill="black" />
<rect shape-rendering="optimizeSpeed"  x="253" y="55" width="9" height="9" fill="black" />
<rect shape-rendering="optimizeSpeed"  x="271" y="55" width="9" height="9" fill="black" />
<rect shape-rendering="optimizeSpeed"  x="19" y="64" width="9" height="9" fill="black" />
<rect shape-rendering="optimizeSpeed"  x="73" y="64" width="9" height="9" fill="black" />
<rect shape-rendering="optimizeSpeed"  x="118" y="64" width="9" height="9" fill="black" />
<rect shape-rendering="optimizeSpeed"  x="127" y="64" width="9" height="9" fill="black" />
<rect shape-rendering="optimizeSpeed"  x="136" y="64" width="9" height="9" fill="black" />
<rect shape-rendering="optimizeSpeed"  x="199" y="64" width="9" height="9" fill="black" />
<rect shape-rendering="optimizeSpeed"  x="217" y="64" width="9" height="9" fill="black" />
<rect shape-rendering="optimizeSpeed"  x="271" y="64" width="9" height="9" fill="black" />
<rect shape-rendering="optimizeSpeed"  x="19" y="73" width="9" height="9" fill="black" />
<rect shape-rendering="optimizeSpeed"  x="28" y="73" width="9" height="9" fill="black" />
<rect shape-rendering="optimizeSpeed"  x="37" y="73" width="9" height="9" fill="black" />
<rect shape-rendering="optimizeSpeed"  x="46" y="73" width="9" height="9" fill="black" />
<rect shape-rendering="optimizeSpeed"  x="55" y="73" width="9" height="9" fill="black" />
<rect shape-rendering="optimizeSpeed"  x="64" y="73" width="9" height="9" fill="black" />
<rect shape-rendering="optimizeSpeed"  x="73" y="73" width="9" height="9" fill="black" />
<rect shape-rendering="optimizeSpeed"  x="91" y="73" width="9" height="9" fill="black" />
<rect shape-rendering="optimizeSpeed"  x="109" y="73" width="9" height="9" fill="black" />
<rect shape-rendering="optimizeSpeed"  x="127" y="73" width="9" height="9" fill="black" />
<rect shape-rendering="optimizeSpeed"  x="145" y="73" width="9" height="9" fill="black" />
<rect shape-rendering="optimizeSpeed"  x="163" y="73" width="9" height="9" fill="black" />
<rect shape-rendering="optimizeSpeed"  x="181" y="73" width="9" height="9" fill="black" />
<rect shape-rendering="optimizeSpeed"  x="199" y="73" width="9" height="9" fill="black" />
<rect shape-rendering="optimizeSpeed"  x="217" y="73" width="9" height="9" fill="black" />
<rect shape-rendering="optimizeSpeed"  x="226" y="73" width="9" height="9" fill="black" />
<rect shape-rendering="optimizeSpeed"  x="235" y="73" width="9" height="9" fill="black" />
<rect shape-rendering="optimizeSpeed"  x="244" y="73" width="9" height="9" fill="black" />
<rect shape-rendering="optimizeSpeed"  x="253" y="73" width="9" height="9" fill="black" />
<rect shape-rendering="optimizeSpeed"  x="262" y="73" width="9" height="9" fill="black" />
<rect shape-rendering="optimizeSpeed"  x="271" y="73" width="9" height="9" fill="black" />
<rect shape-rendering="optimizeSpeed"  x="109" y="82" width="9" height="9" fill="black" />
<rect shape-rendering="optimizeSpeed"  x="118" y="82" width="9" height="9" fill="black" />
<rect shape-rendering="optimizeSpeed"  x="154" y="82" width="9" height="9" fill="black" />
<rect shape-rendering="optimizeSpeed"  x="190" y="82" width="9" height="9" fill="black" />
<rect shape-rendering="optimizeSpeed"  x="199" y="82" width="9" height="9" fill="black" />
<rect shape-rendering="optimizeSpeed"  x="19" y="91" width="9" height="9" fill="black" />
<rect shape-rendering="optimizeSpeed"  x="28" y="91" width="9" height="9" fill="black" />
<rect shape-rendering="optimizeSpeed"  x="64" y="91" width="9" height="9" fill="black" />
<rect shape-rendering="optimizeSpeed"  x="73" y="91" width="9" height="9" fill="black" />
<rect shape-rendering="optimizeSpeed"  x="82" y="91" width="9" height="9" fill="black" />
<rect shape-rendering="optimizeSpeed"  x="100" y="91" width="9" height="9" fill="black" />
<rect shape-rendering="optimizeSpeed"  x="118" y="91" width="9" height="9" fill="black" />
<rect shape-rendering="optimizeSpeed"  x="136" y="91" width="9" height="9" fill="black" />
<rect shape-rendering="optimizeSpeed"  x="154" y="91" width="9" height="9" fill="black" />
<rect shape-rendering="optimizeSpeed"  x="163" y="91" width="9" height="9" fill="black" />
<rect shape-rendering="optimizeSpeed"  x="172" y="91" width="9" height="9" fill="black" />
<rect shape-rendering="optimizeSpeed"  x="235" y="91" width="9" height="9" fill="black" />
<rect shape-rendering="optimizeSpeed"  x="244" y="91" width="9" height="9" fill="black" />
<rect shape-rendering="optimizeSpeed"  x="19" y="100" width="9" height="9" fill="black" />
<rect shape-rendering="optimizeSpeed"  x="28" y="100" width="9" height="9" fill="black" />
<rect shape-rendering="optimizeSpeed"  x="37" y="100" width="9" height="9" fill="black" />
<rect shape-rendering="optimizeSpeed"  x="46" y="100" width="9" height="9" fill="black" />
<rect shape-rendering="optimizeSpeed"  x="64" y="100" width="9" height="9" fill="black" />
<rect shape-rendering="optimizeSpeed"  x="100" y="100" width="9" height="9" fill="black" />
<rect shape-rendering="optimizeSpeed"  x="127" y="100" width="9" height="9" fill="black" />
<rect shape-rendering="optimizeSpeed"  x="154" y="100" width="9" height="9" fill="black" />
<rect shape-rendering="optimizeSpeed"  x="172" y="100" width="9" height="9" fill="black" />
<rect shape-rendering="optimizeSpeed"  x="181" y="100" width="9" height="9" fill="black" />
<rect shape-rendering="optimizeSpeed"  x="190" y="100" width="9" height="9" fill="black" />
<rect shape-rendering="optimizeSpeed"  x="208" y="100" width="9" height="9" fill="black" />
<rect shape-rendering="optimizeSpeed"  x="226" y="100" width="9" height="9" fill="black" />
<rect shape-rendering="optimizeSpeed"  x="235" y="100" width="9" height="9" fill="black" />
<rect shape-rendering="optimizeSpeed"  x="253" y="100" width="9" height="9" fill="black" />
<rect shape-rendering="optimizeSpeed"  x="262" y="100" width="9" height="9" fill="black" />
<rect shape-rendering="optimizeSpeed"  x="28" y="109" width="9" height="9" fill="black" />
<rect shape-rendering="optimizeSpeed"  x="55" y="109" width="9" height="9" fill="black" />
<rect shape-rendering="optimizeSpeed"  x="73" y="109" width="9" height="9" fill="black" />
<rect shape-rendering="optimizeSpeed"  x="82" y="109" width="9" height="9" fill="black" />
<rect shape-rendering="optimizeSpeed"  x="109" y="109" width="9" height="9" fill="black" />
<rect shape-rendering="optimizeSpeed"  x="136" y="109" width="9" height="9" fill="black" />
<rect shape-rendering="optimizeSpeed"  x="154" y="109" width="9" height="9" fill="black" />
<rect shape-rendering="optimizeSpeed"  x="172" y="109" width="9" height="9" fill="black" />
<rect shape-rendering="optimizeSpeed"  x="181" y="109" width="9" height="9" fill="black" />
<rect shape-rendering="optimizeSpeed"  x="235" y="109" width="9" height="9" fill="black" />
<rect shape-rendering="optimizeSpeed"  x="244" y="109" width="9" height="9" fill="black" />
<rect shape-rendering="optimizeSpeed"  x="262" y="109" width="9" height="9" fill="black" />
<rect shape-rendering="optimizeSpeed"  x="100" y="118" width="9" height="9" fill="black" />
<rect shape-rendering="optimizeSpeed"  x="127" y="118" width="9" height="9" fill="black" />
<rect shape-rendering="optimizeSpeed"  x="163" y="118" width="9" height="9" fill="black" />
<rect shape-rendering="optimizeSpeed"  x="181" y="118" width="9" height="9" fill="black" />
<rect shape-rendering="optimizeSpeed"  x="190" y="118" width="9" height="9" fill="black" />
<rect shape-rendering="optimizeSpeed"  x="208" y="118" width="9" height="9" fill="black" />
<rect shape-rendering="optimizeSpeed"  x="217" y="118" width="9" height="9" fill="black" />
<rect shape-rendering="optimizeSpeed"  x="226" y="118" width="9" height="9" fill="black" />
<rect shape-rendering="optimizeSpeed"  x="271" y="118" width="9" height="9" fill="black" />
<rect shape-rendering="optimizeSpeed"  x="64" y="127" width="9" height="9" fill="black" />
<rect shape-rendering="optimizeSpeed"  x="73" y="127" width="9" height="9" fill="black" />
<rect shape-rendering="optimizeSpeed"  x="91" y="127" width="9" height="9" fill="black" />
<rect shape-rendering="optimizeSpeed"  x="100" y="127" width="9" height="9" fill="black" />
<rect shape-rendering="optimizeSpeed"  x="118" y="127" width="9" height="9" fill="black" />
<rect shape-rendering="optimizeSpeed"  x="127" y="127" width="9" height="9" fill="black" />
<rect shape-rendering="optimizeSpeed"  x="145" y="127" width="9" height="9" fill="black" />
<rect shape-rendering="optimizeSpeed"  x="163" y="127" width="9" height="9" fill="black" />
<rect shape-rendering="optimizeSpeed"  x="199" y="127" width="9" height="9" fill="black" />
<rect shape-rendering="optimizeSpeed"  x="217" y="127" width="9" height="9" fill="black" />
<rect shape-rendering="optimizeSpeed"  x="226" y="127" width="9" height="9" fill="black" />
<rect shape-rendering="optimizeSpeed"  x="262" y="127" width="9" height="9" fill="black" />
<rect shape-rendering="optimizeSpeed"  x="271" y="127" width="9" height="9" fill="black" />
<rect shape-rendering="optimizeSpeed"  x="37" y="136" width="9" height="9" fill="black" />
<rect shape-rendering="optimizeSpeed"  x="55" y="136" width="9" height="9" fill="black" />
<rect shape-rendering="optimizeSpeed"  x="64" y="136" width="9" height="9" fill="black" />
<rect shape-rendering="optimizeSpeed"  x="82" y="136" width="9" height="9" fill="black" />
<rect shape-rendering="optimizeSpeed"  x="145" y="136" width="9" height="9" fill="black" />
<rect shape-rendering="optimizeSpeed"  x="154" y="136" width="9" height="9" fill="black" />
<rect shape-rendering="optimizeSpeed"  x="163" y="136" width="9" height="9" fill="black" />
<rect shape-rendering="optimizeSpeed"  x="181" y="136" width="9" height="9" fill="black" />
<rect shape-rendering="optimizeSpeed"  x="190" y="136" width="9" height="9" fill="black" />
<rect shape-rendering="optimizeSpeed"  x="199" y="136" width="9" height="9" fill="black" />
<rect shape-rendering="optimizeSpeed"  x="217" y="136" width="9" height="9" fill="black" />
<rect shape-rendering="optimizeSpeed"  x="226" y="136" width="9" height="9" fill="black" />
<rect shape-rendering="optimizeSpeed"  x="235" y="136" width="9" height="9" fill="black" />
<rect shape-rendering="optimizeSpeed"  x="253" y="136" width="9" height="9" fill="black" />
<rect shape-rendering="optimizeSpeed"  x="271" y="136" width="9" height="9" fill="black" />
<rect shape-rendering="optimizeSpeed"  x="19" y="145" width="9" height="9" fill="black" />
<rect shape-rendering="optimizeSpeed"  x="28" y="145" width="9" height="9" fill="black" />
<rect shape-rendering="optimizeSpeed"  x="55" y="145" width="9" height="9" fill="black" />
<rect shape-rendering="optimizeSpeed"  x="73" y="145" width="9" height="9" fill="black" />
<rect shape-rendering="optimizeSpeed"  x="118" y="145" width="9" height="9" fill="black" />
<rect shape-rendering="optimizeSpeed"  x="127" y="145" width="9" height="9" fill="black" />
<rect shape-rendering="optimizeSpeed"  x="136" y="145" width="9" height="9" fill="black" />
<rect shape-rendering="optimizeSpeed"  x="145" y="145" width="9" height="9" fill="black" />
<rect shape-rendering="optimizeSpeed"  x="154" y="145" width="9" height="9" fill="black" />
<rect shape-rendering="optimizeSpeed"  x="172" y="145" width="9" height="9" fill="black" />
<rect shape-rendering="optimizeSpeed"  x="217" y="145" width="9" height="9" fill="black" />
<rect shape-rendering="optimizeSpeed"  x="226" y="145" width="9" height="9" fill="black" />
<rect shape-rendering="optimizeSpeed"  x="91" y="154" width="9" height="9" fill="black" />
<rect shape-rendering="optimizeSpeed"  x="100" y="154" width="9" height="9" fill="black" />
<rect shape-rendering="optimizeSpeed"  x="118" y="154" width="9" height="9" fill="black" />
<rect shape-rendering="optimizeSpeed"  x="145" y="154" width="9" height="9" fill="black" />
<rect shape-rendering="optimizeSpeed"  x="154" y="154" width="9" height="9" fill="black" />
<rect shape-rendering="optimizeSpeed"  x="181" y="154" width="9" height="9" fill="black" />
<rect shape-rendering="optimizeSpeed"  x="190" y="154" width="9" height="9" fill="black" />
<rect shape-rendering="optimizeSpeed"  x="217" y="154" width="9" height="9" fill="black" />
<rect shape-rendering="optimizeSpeed"  x="235" y="154" width="9" height="9" fill="black" />
<rect shape-rendering="optimizeSpeed"  x="244" y="154" width="9" height="9" fill="black" />
<rect shape-rendering="optimizeSpeed"  x="253" y="154" width="9" height="9" fill="black" />
<rect shape-rendering="optimizeSpeed"  x="37" y="163" width="9" height="9" fill="black" />
<rect shape-rendering="optimizeSpeed"  x="55" y="163" width="9" height="9" fill="black" />
<rect shape-rendering="optimizeSpeed"  x="73" y="163" width="9" height="9" fill="black" />
<rect shape-rendering="optimizeSpeed"  x="109" y="163" width="9" height="9" fill="black" />
<rect shape-rendering="optimizeSpeed"  x="118" y="163" width="9" height="9" fill="black" />
<rect shape-rendering="optimizeSpeed"  x="136" y="163" width="9" height="9" fill="black" />
<rect shape-rendering="optimizeSpeed"  x="172" y="163" width="9" height="9" fill="black" />
<rect shape-rendering="optimizeSpeed"  x="181" y="163" width="9" height="9" fill="black" />
<rect shape-rendering="optimizeSpeed"  x="199" y="163" width="9" height="9" fill="black" />
<rect shape-rendering="optimizeSpeed"  x="253" y="163" width="9" height="9" fill="black" />
<rect shape-rendering="optimizeSpeed"  x="271" y="163" width="9" height="9" fill="black" />
<rect shape-rendering="optimizeSpeed"  x="19" y="172" width="9" height="9" fill="black" />
<rect shape-rendering="optimizeSpeed"  x="37" y="172" width="9" height="9" fill="black" />
<rect shape-rendering="optimizeSpeed"  x="46" y="172" width="9" height="9" fill="black" />
<rect shape-rendering="optimizeSpeed"  x="91" y="172" width="9" height="9" fill="black" />
<rect shape-rendering="optimizeSpeed"  x="109" y="172" width="9" height="9" fill="black" />
<rect shape-rendering="optimizeSpeed"  x="127" y="172" width="9" height="9" fill="black" />
<rect shape-rendering="optimizeSpeed"  x="145" y="172" width="9" height="9" fill="black" />
<rect shape-rendering="optimizeSpeed"  x="154" y="172" width="9" height="9" fill="black" />
<rect shape-rendering="optimizeSpeed"  x="163" y="172" width="9" height="9" fill="black" />
<rect shape-rendering="optimizeSpeed"  x="190" y="172" width="9" height="9" fill="black" />
<rect shape-rendering="optimizeSpeed"  x="199" y="172" width="9" height="9" fill="black" />
<rect shape-rendering="optimizeSpeed"  x="217" y="172" width="9" height="9" fill="black" />
<rect shape-rendering="optimizeSpeed"  x="226" y="172" width="9" height="9" fill="black" />
<rect shape-rendering="optimizeSpeed"  x="235" y="172" width="9" height="9" fill="black" />
<rect shape-rendering="optimizeSpeed"  x="253" y="172" width="9" height="9" fill="black" />
<rect shape-rendering="optimizeSpeed"  x="271" y="172" width="9" height="9" fill="black" />
<rect shape-rendering="optimizeSpeed"  x="19" y="181" width="9" height="9" fill="black" />
<rect shape-rendering="optimizeSpeed"  x="28" y="181" width="9" height="9" fill="black" />
<rect shape-rendering="optimizeSpeed"  x="37" y="181" width="9" height="9" fill="black" />
<rect shape-rendering="optimizeSpeed"  x="46" y="181" width="9" height="9" fill="black" />
<rect shape-rendering="optimizeSpeed"  x="55" y="181" width="9" height="9" fill="black" />
<rect shape-rendering="optimizeSpeed"  x="64" y="181" width="9" height="9" fill="black" />
<rect shape-rendering="optimizeSpeed"  x="73" y="181" width="9" height="9" fill="black" />
<rect shape-rendering="optimizeSpeed"  x="82" y="181" width="9" height="9" fill="black" />
<rect shape-rendering="optimizeSpeed"  x="91" y="181" width="9" height="9" fill="black" />
<rect shape-rendering="optimizeSpeed"  x="100" y="181" width="9" height="9" fill="black" />
<rect shape-rendering="optimizeSpeed"  x="109" y="181" width="9" height="9" fill="black" />
<rect shape-rendering="optimizeSpeed"  x="118" y="181" width="9" height="9" fill="black" />
<rect shape-rendering="optimizeSpeed"  x="154" y="181" width="9" height="9" fill="black" />
<rect shape-rendering="optimizeSpeed"  x="190" y="181" width="9" height="9" fill="black" />
<rect shape-rendering="optimizeSpeed"  x="217" y="181" width="9" height="9" fill="black" />
<rect shape-rendering="optimizeSpeed"  x="226" y="181" width="9" height="9" fill="black" />
<rect shape-rendering="optimizeSpeed"  x="235" y="181" width="9" height="9" fill="black" />
<rect shape-rendering="optimizeSpeed"  x="271" y="181" width="9" height="9" fill="black" />
<rect shape-rendering="optimizeSpeed"  x="19" y="190" width="9" height="9" fill="black" />
<rect shape-rendering="optimizeSpeed"  x="46" y="190" width="9" height="9" fill="black" />
<rect shape-rendering="optimizeSpeed"  x="55" y="190" width="9" height="9" fill="black" />
<rect shape-rendering="optimizeSpeed"  x="64" y="190" width="9" height="9" fill="black" />
<rect shape-rendering="optimizeSpeed"  x="91" y="190" width="9" height="9" fill="black" />
<rect shape-rendering="optimizeSpeed"  x="127" y="190" width="9" height="9" fill="black" />
<rect shape-rendering="optimizeSpeed"  x="163" y="190" width="9" height="9" fill="black" />
<rect shape-rendering="optimizeSpeed"  x="244" y="190" width="9" height="9" fill="black" />
<rect shape-rendering="optimizeSpeed"  x="271" y="190" width="9" height="9" fill="black" />
<rect shape-rendering="optimizeSpeed"  x="19" y="199" width="9" height="9" fill="black" />
<rect shape-rendering="optimizeSpeed"  x="55" y="199" width="9" height="9" fill="black" />
<rect shape-rendering="optimizeSpeed"  x="73" y="199" width="9" height="9" fill="black" />
<rect shape-rendering="optimizeSpeed"  x="82" y="199" width="9" height="9" fill="black" />
<rect shape-rendering="optimizeSpeed"  x="91" y="199" width="9" height="9" fill="black" />
<rect shape-rendering="optimizeSpeed"  x="100" y="199" width="9" height="9" fill="black" />
<rect shape-rendering="optimizeSpeed"  x="127" y="199" width="9" height="9" fill="black" />
<rect shape-rendering="optimizeSpeed"  x="136" y="199" width="9" height="9" fill="black" />
<rect shape-rendering="optimizeSpeed"  x="154" y="199" width="9" height="9" fill="black" />
<rect shape-rendering="optimizeSpeed"  x="163" y="199" width="9" height="9" fill="black" />
<rect shape-rendering="optimizeSpeed"  x="172" y="199" width="9" height="9" fill="black" />
<rect shape-rendering="optimizeSpeed"  x="181" y="199" width="9" height="9" fill="black" />
<rect shape-rendering="optimizeSpeed"  x="199" y="199" width="9" height="9" fill="black" />
<rect shape-rendering="optimizeSpeed"  x="208" y="199" width="9" height="9" fill="black" />
<rect shape-rendering="optimizeSpeed"  x="217" y="199" width="9" height="9" fill="black" />
<rect shape-rendering="optimizeSpeed"  x="226" y="199" width="9" height="9" fill="black" />
<rect shape-rendering="optimizeSpeed"  x="235" y="199" width="9" height="9" fill="black" />
<rect shape-rendering="optimizeSpeed"  x="244" y="199" width="9" height="9" fill="black" />
<rect shape-rendering="optimizeSpeed"  x="253" y="199" width="9" height="9" fill="black" />
<rect shape-rendering="optimizeSpeed"  x="262" y="199" width="9" height="9" fill="black" />
<rect shape-rendering="optimizeSpeed"  x="91" y="208" width="9" height="9" fill="black" />
<rect shape-rendering="optimizeSpeed"  x="109" y="208" width="9" height="9" fill="black" />
<rect shape-rendering="optimizeSpeed"  x="154" y="208" width="9" height="9" fill="black" />
<rect shape-rendering="optimizeSpeed"  x="163" y="208" width="9" height="9" fill="black" />
<rect shape-rendering="optimizeSpeed"  x="190" y="208" width="9" height="9" fill="black" />
<rect shape-rendering="optimizeSpeed"  x="199" y="208" width="9" height="9" fill="black" />
<rect shape-rendering="optimizeSpeed"  x="235" y="208" width="9" height="9" fill="black" />
<rect shape-rendering="optimizeSpeed"  x="19" y="217" width="9" height="9" fill="black" />
<rect shape-rendering="optimizeSpeed"  x="28" y="217" width="9" height="9" fill="black" />
<rect shape-rendering="optimizeSpeed"  x="37" y="217" width="9" height="9" fill="black" />
<rect shape-rendering="optimizeSpeed"  x="46" y="217" width="9" height="9" fill="black" />
<rect shape-rendering="optimizeSpeed"  x="55" y="217" width="9" height="9" fill="black" />
<rect shape-rendering="optimizeSpeed"  x="64" y="217" width="9" height="9" fill="black" />
<rect shape-rendering="optimizeSpeed"  x="73" y="217" width="9" height="9" fill="black" />
<rect shape-rendering="optimizeSpeed"  x="91" y="217" width="9" height="9" fill="black" />
<rect shape-rendering="optimizeSpeed"  x="100" y="217" width="9" height="9" fill="black" />
<rect shape-rendering="optimizeSpeed"  x="118" y="217" width="9" height="9" fill="black" />
<rect shape-rendering="optimizeSpeed"  x="127" y="217" width="9" height="9" fill="black" />
<rect shape-rendering="optimizeSpeed"  x="154" y="217" width="9" height="9" fill="black" />
<rect shape-rendering="optimizeSpeed"  x="190" y="217" width="9" height="9" fill="black" />
<rect shape-rendering="optimizeSpeed"  x="199" y="217" width="9" height="9" fill="black" />
<rect shape-rendering="optimizeSpeed"  x="217" y="217" width="9" height="9" fill="black" />
<rect shape-rendering="optimizeSpeed"  x="235" y="217" width="9" height="9" fill="black" />
<rect shape-rendering="optimizeSpeed"  x="253" y="217" width="9" height="9" fill="black" />
<rect shape-rendering="optimizeSpeed"  x="19" y="226" width="9" height="9" fill="black" />
<rect shape-rendering="optimizeSpeed"  x="73" y="226" width="9" height="9" fill="black" />
<rect shape-rendering="optimizeSpeed"  x="91" y="226" width="9" height="9" fill="black" />
<rect shape-rendering="optimizeSpeed"  x="118" y="226" width="9" height="9" fill="black" />
<rect shape-rendering="optimizeSpeed"  x="163" y="226" width="9" height="9" fill="black" />
<rect shape-rendering="optimizeSpeed"  x="181" y="226" width="9" height="9" fill="black" />
<rect shape-rendering="optimizeSpeed"  x="190" y="226" width="9" height="9" fill="black" />
<rect shape-rendering="optimizeSpeed"  x="199" y="226" width="9" height="9" fill="black" />
<rect shape-rendering="optimizeSpeed"  x="235" y="226" width="9" height="9" fill="black" />
<rect shape-rendering="optimizeSpeed"  x="244" y="226" width="9" height="9" fill="black" />
<rect shape-rendering="optimizeSpeed"  x="271" y="226" width="9" height="9" fill="black" />
<rect shape-rendering="optimizeSpeed"  x="19" y="235" width="9" height="9" fill="black" />
<rect shape-rendering="optimizeSpeed"  x="37" y="235" width="9" height="9" fill="black" />
<rect shape-rendering="optimizeSpeed"  x="46" y="235" width="9" height="9" fill="black" />
<rect shape-rendering="optimizeSpeed"  x="55" y="235" width="9" height="9" fill="black" />
<rect shape-rendering="optimizeSpeed"  x="73" y="235" width="9" height="9" fill="black" />
<rect shape-rendering="optimizeSpeed"  x="136" y="235" width="9" height="9" fill="black" />
<rect shape-rendering="optimizeSpeed"  x="145" y="235" width="9" height="9" fill="black" />
<rect shape-rendering="optimizeSpeed"  x="154" y="235" width="9" height="9" fill="black" />
<rect shape-rendering="optimizeSpeed"  x="163" y="235" width="9" height="9" fill="black" />
<rect shape-rendering="optimizeSpeed"  x="190" y="235" width="9" height="9" fill="black" />
<rect shape-rendering="optimizeSpeed"  x="199" y="235" width="9" height="9" fill="black" />
<rect shape-rendering="optimizeSpeed"  x="208" y="235" width="9" height="9" fill="black" />
<rect shape-rendering="optimizeSpeed"  x="217" y="235" width="9" height="9" fill="black" />
<rect shape-rendering="optimizeSpeed"  x="226" y="235" width="9" height="9" fill="black" />
<rect shape-rendering="optimizeSpeed"  x="235" y="235" width="9" height="9" fill="black" />
<rect shape-rendering="optimizeSpeed"  x="262" y="235" width="9" height="9" fill="black" />
<rect shape-rendering="optimizeSpeed"  x="19" y="244" width="9" height="9" fill="black" />
<rect shape-rendering="optimizeSpeed"  x="37" y="244" width="9" height="9" fill="black" />
<rect shape-rendering="optimizeSpeed"  x="46" y="244" width="9" height="9" fill="black" />
<rect shape-rendering="optimizeSpeed"  x="55" y="244" width="9" height="9" fill="black" />
<rect shape-rendering="optimizeSpeed"  x="73" y="244" width="9" height="9" fill="black" />
<rect shape-rendering="optimizeSpeed"  x="109" y="244" width="9" height="9" fill="black" />
<rect shape-rendering="optimizeSpeed"  x="127" y="244" width="9" height="9" fill="black" />
<rect shape-rendering="optimizeSpeed"  x="136" y="244" width="9" height="9" fill="black" />
<rect shape-rendering="optimizeSpeed"  x="154" y="244" width="9" height="9" fill="black" />
<rect shape-rendering="optimizeSpeed"  x="163" y="244" width="9" height="9" fill="black" />
<rect shape-rendering="optimizeSpeed"  x="208" y="244" width="9" height="9" fill="black" />
<rect shape-rendering="optimizeSpeed"  x="226" y="244" width="9" height="9" fill="black" />
<rect shape-rendering="optimizeSpeed"  x="253" y="244" width="9" height="9" fill="black" />
<rect shape-rendering="optimizeSpeed"  x="271" y="244" width="9" height="9" fill="black" />
<rect shape-rendering="optimizeSpeed"  x="19" y="253" width="9" height="9" fill="black" />
<rect shape-rendering="optimizeSpeed"  x="37" y="253" width="9" height="9" fill="black" />
<rect shape-rendering="optimizeSpeed"  x="46" y="253" width="9" height="9" fill="black" />
<rect shape-rendering="optimizeSpeed"  x="55" y="253" width="9" height="9" fill="black" />
<rect shape-rendering="optimizeSpeed"  x="73" y="253" width="9" height="9" fill="black" />
<rect shape-rendering="optimizeSpeed"  x="100" y="253" width="9" height="9" fill="black" />
<rect shape-rendering="optimizeSpeed"  x="136" y="253" width="9" height="9" fill="black" />
<rect shape-rendering="optimizeSpeed"  x="145" y="253" width="9" height="9" fill="black" />
<rect shape-rendering="optimizeSpeed"  x="154" y="253" width="9" height="9" fill="black" />
<rect shape-rendering="optimizeSpeed"  x="163" y="253" width="9" height="9" fill="black" />
<rect shape-rendering="optimizeSpeed"  x="172" y="253" width="9" height="9" fill="black" />
<rect shape-rendering="optimizeSpeed"  x="181" y="253" width="9" height="9" fill="black" />
<rect shape-rendering="optimizeSpeed"  x="199" y="253" width="9" height="9" fill="black" />
<rect shape-rendering="optimizeSpeed"  x="208" y="253" width="9" height="9" fill="black" />
<rect shape-rendering="optimizeSpeed"  x="217" y="253" width="9" height="9" fill="black" />
<rect shape-rendering="optimizeSpeed"  x="235" y="253" width="9" height="9" fill="black" />
<rect shape-rendering="optimizeSpeed"  x="262" y="253" width="9" height="9" fill="black" />
<rect shape-rendering="optimizeSpeed"  x="19" y="262" width="9" height="9" fill="black" />
<rect shape-rendering="optimizeSpeed"  x="73" y="262" width="9" height="9" fill="black" />
<rect shape-rendering="optimizeSpeed"  x="91" y="262" width="9" height="9" fill="black" />
<rect shape-rendering="optimizeSpeed"  x="127" y="262" width="9" height="9" fill="black" />
<rect shape-rendering="optimizeSpeed"  x="136" y="262" width="9" height="9" fill="black" />
<rect shape-rendering="optimizeSpeed"  x="145" y="262" width="9" height="9" fill="black" />
<rect shape-rendering="optimizeSpeed"  x="154" y="262" width="9" height="9" fill="black" />
<rect shape-rendering="optimizeSpeed"  x="163" y="262" width="9" height="9" fill="black" />
<rect shape-rendering="optimizeSpeed"  x="208" y="262" width="9" height="9" fill="black" />
<rect shape-rendering="optimizeSpeed"  x="217" y="262" width="9" height="9" fill="black" />
<rect shape-rendering="optimizeSpeed"  x="235" y="262" width="9" height="9" fill="black" />
<rect shape-rendering="optimizeSpeed"  x="244" y="262" width="9" height="9" fill="black" />
<rect shape-rendering="optimizeSpeed"  x="253" y="262" width="9" height="9" fill="black" />
<rect shape-rendering="optimizeSpeed"  x="271" y="262" width="9" height="9" fill="black" />
<rect shape-rendering="optimizeSpeed"  x="19" y="271" width="9" height="9" fill="black" />
<rect shape-rendering="optimizeSpeed"  x="28" y="271" width="9" height="9" fill="black" />
<rect shape-rendering="optimizeSpeed"  x="37" y="271" width="9" height="9" fill="black" />
<rect shape-rendering="optimizeSpeed"  x="46" y="271" width="9" height="9" fill="black" />
<rect shape-rendering="optimizeSpeed"  x="55" y="271" width="9" height="9" fill="black" />
<rect shape-rendering="optimizeSpeed"  x="64" y="271" width="9" height="9" fill="black" />
<rect shape-rendering="optimizeSpeed"  x="73" y="271" width="9" height="9" fill="black" />
<rect shape-rendering="optimizeSpeed"  x="91" y="271" width="9" height="9" fill="black" />
<rect shape-rendering="optimizeSpeed"  x="127" y="271" width="9" height="9" fill="black" />
<rect shape-rendering="optimizeSpeed"  x="145" y="271" width="9" height="9" fill="black" />
<rect shape-rendering="optimizeSpeed"  x="154" y="271" width="9" height="9" fill="black" />
<rect shape-rendering="optimizeSpeed"  x="163" y="271" width="9" height="9" fill="black" />
<rect shape-rendering="optimizeSpeed"  x="172" y="271" width="9" height="9" fill="black" />
<rect shape-rendering="optimizeSpeed"  x="190" y="271" width="9" height="9" fill="black" />
<rect shape-rendering="optimizeSpeed"  x="208" y="271" width="9" height="9" fill="black" />
<rect shape-rendering="optimizeSpeed"  x="217" y="271" width="9" height="9" fill="black" />
<rect shape-rendering="optimizeSpeed"  x="244" y="271" width="9" height="9" fill="black" />
<rect shape-rendering="optimizeSpeed"  x="253" y="271" width="9" height="9" fill="black" /></svg>